<mxfile host="app.diagrams.net" modified="2021-12-19T06:00:49.842Z" agent="5.0 (Macintosh; Intel Mac OS X 10_15_7) AppleWebKit/537.36 (KHTML, like Gecko) Chrome/96.0.4664.110 Safari/537.36" etag="6SW_PItFFAf4aN9ooBEe" version="15.9.6" type="github">
  <diagram id="p42oD-dZs1eEMd3FKmhi" name="Page-1">
    <mxGraphModel dx="437" dy="1248" grid="1" gridSize="10" guides="1" tooltips="1" connect="1" arrows="1" fold="1" page="1" pageScale="1" pageWidth="850" pageHeight="1100" math="0" shadow="0">
      <root>
        <mxCell id="0" />
        <mxCell id="1" parent="0" />
        <mxCell id="KmlyCW7bkHcfsmOVIcOK-3" style="edgeStyle=orthogonalEdgeStyle;rounded=0;orthogonalLoop=1;jettySize=auto;html=1;fontColor=#1726FF;endArrow=block;endFill=0;fillColor=#e1d5e7;strokeColor=#9673a6;" parent="1" source="KmlyCW7bkHcfsmOVIcOK-1" target="KmlyCW7bkHcfsmOVIcOK-2" edge="1">
          <mxGeometry relative="1" as="geometry" />
        </mxCell>
        <mxCell id="KmlyCW7bkHcfsmOVIcOK-5" style="edgeStyle=orthogonalEdgeStyle;rounded=0;orthogonalLoop=1;jettySize=auto;html=1;fontColor=#1726FF;endArrow=classic;endFill=1;fillColor=#e1d5e7;strokeColor=#9673a6;" parent="1" source="KmlyCW7bkHcfsmOVIcOK-1" target="KmlyCW7bkHcfsmOVIcOK-4" edge="1">
          <mxGeometry relative="1" as="geometry" />
        </mxCell>
        <mxCell id="KmlyCW7bkHcfsmOVIcOK-1" value="FeedViewController" style="rounded=0;whiteSpace=wrap;html=1;fillColor=#e1d5e7;strokeColor=#9673a6;" parent="1" vertex="1">
          <mxGeometry x="120" y="440" width="120" height="40" as="geometry" />
        </mxCell>
        <mxCell id="KmlyCW7bkHcfsmOVIcOK-2" value="UIViewController" style="rounded=0;whiteSpace=wrap;html=1;fillColor=#d5e8d4;strokeColor=#82b366;" parent="1" vertex="1">
          <mxGeometry x="120" y="510" width="120" height="40" as="geometry" />
        </mxCell>
        <mxCell id="KmlyCW7bkHcfsmOVIcOK-4" value="&amp;lt;FeedLoader&amp;gt;" style="rounded=0;whiteSpace=wrap;html=1;fillColor=#e1d5e7;strokeColor=#9673a6;" parent="1" vertex="1">
          <mxGeometry x="130" y="360" width="100" height="40" as="geometry" />
        </mxCell>
        <mxCell id="KmlyCW7bkHcfsmOVIcOK-7" style="edgeStyle=orthogonalEdgeStyle;rounded=0;orthogonalLoop=1;jettySize=auto;html=1;entryX=0;entryY=0.5;entryDx=0;entryDy=0;fontColor=#1726FF;endArrow=block;endFill=0;dashed=1;" parent="1" source="KmlyCW7bkHcfsmOVIcOK-6" target="KmlyCW7bkHcfsmOVIcOK-4" edge="1">
          <mxGeometry relative="1" as="geometry" />
        </mxCell>
        <mxCell id="KmlyCW7bkHcfsmOVIcOK-6" value="RemoteFeedLoader" style="rounded=0;whiteSpace=wrap;html=1;fillColor=#dae8fc;strokeColor=#6c8ebf;" parent="1" vertex="1">
          <mxGeometry x="40" y="260" width="120" height="40" as="geometry" />
        </mxCell>
        <mxCell id="KmlyCW7bkHcfsmOVIcOK-9" style="edgeStyle=orthogonalEdgeStyle;rounded=0;orthogonalLoop=1;jettySize=auto;html=1;entryX=1;entryY=0.5;entryDx=0;entryDy=0;fontColor=#1726FF;endArrow=block;endFill=0;dashed=1;" parent="1" source="KmlyCW7bkHcfsmOVIcOK-8" target="KmlyCW7bkHcfsmOVIcOK-4" edge="1">
          <mxGeometry relative="1" as="geometry" />
        </mxCell>
        <mxCell id="KmlyCW7bkHcfsmOVIcOK-8" value="LocalFeedLoader" style="rounded=0;whiteSpace=wrap;html=1;fillColor=#f8cecc;strokeColor=#b85450;" parent="1" vertex="1">
          <mxGeometry x="200" y="260" width="120" height="40" as="geometry" />
        </mxCell>
        <mxCell id="KmlyCW7bkHcfsmOVIcOK-12" style="edgeStyle=orthogonalEdgeStyle;rounded=0;orthogonalLoop=1;jettySize=auto;html=1;dashed=1;fontColor=#1726FF;endArrow=block;endFill=0;fillColor=#ffe6cc;strokeColor=#d79b00;" parent="1" source="KmlyCW7bkHcfsmOVIcOK-11" target="KmlyCW7bkHcfsmOVIcOK-4" edge="1">
          <mxGeometry relative="1" as="geometry" />
        </mxCell>
        <mxCell id="KmlyCW7bkHcfsmOVIcOK-13" style="edgeStyle=orthogonalEdgeStyle;rounded=0;orthogonalLoop=1;jettySize=auto;html=1;fontColor=#1726FF;endArrow=classic;endFill=1;strokeColor=#d79b00;fillColor=#ffe6cc;" parent="1" source="KmlyCW7bkHcfsmOVIcOK-11" target="KmlyCW7bkHcfsmOVIcOK-6" edge="1">
          <mxGeometry relative="1" as="geometry">
            <Array as="points">
              <mxPoint x="140" y="215" />
              <mxPoint x="100" y="215" />
            </Array>
          </mxGeometry>
        </mxCell>
        <mxCell id="KmlyCW7bkHcfsmOVIcOK-14" style="edgeStyle=orthogonalEdgeStyle;rounded=0;orthogonalLoop=1;jettySize=auto;html=1;fontColor=#1726FF;endArrow=classic;endFill=1;strokeColor=#d79b00;fillColor=#ffe6cc;" parent="1" source="KmlyCW7bkHcfsmOVIcOK-11" target="KmlyCW7bkHcfsmOVIcOK-8" edge="1">
          <mxGeometry relative="1" as="geometry">
            <Array as="points">
              <mxPoint x="220" y="215" />
              <mxPoint x="260" y="215" />
            </Array>
          </mxGeometry>
        </mxCell>
        <mxCell id="KmlyCW7bkHcfsmOVIcOK-11" value="RemoteWithLocalFallbackFeedLoader" style="rounded=0;whiteSpace=wrap;html=1;fillColor=#ffe6cc;strokeColor=#d79b00;" parent="1" vertex="1">
          <mxGeometry x="70" y="130" width="220" height="40" as="geometry" />
        </mxCell>
        <mxCell id="UHS8fWVABQz516dVmGSH-1" style="edgeStyle=orthogonalEdgeStyle;rounded=0;orthogonalLoop=1;jettySize=auto;html=1;fontColor=#1726FF;endArrow=block;endFill=0;fillColor=#e1d5e7;strokeColor=#9673a6;" edge="1" parent="1" source="UHS8fWVABQz516dVmGSH-3" target="UHS8fWVABQz516dVmGSH-4">
          <mxGeometry relative="1" as="geometry" />
        </mxCell>
        <mxCell id="UHS8fWVABQz516dVmGSH-2" style="edgeStyle=orthogonalEdgeStyle;rounded=0;orthogonalLoop=1;jettySize=auto;html=1;fontColor=#1726FF;endArrow=classic;endFill=1;fillColor=#e1d5e7;strokeColor=#9673a6;" edge="1" parent="1" source="UHS8fWVABQz516dVmGSH-3" target="UHS8fWVABQz516dVmGSH-5">
          <mxGeometry relative="1" as="geometry" />
        </mxCell>
        <mxCell id="UHS8fWVABQz516dVmGSH-3" value="UI" style="rounded=0;whiteSpace=wrap;html=1;fillColor=#e1d5e7;strokeColor=#9673a6;" vertex="1" parent="1">
          <mxGeometry x="510" y="440" width="120" height="40" as="geometry" />
        </mxCell>
        <mxCell id="UHS8fWVABQz516dVmGSH-4" value="UIViewController" style="rounded=0;whiteSpace=wrap;html=1;fillColor=#d5e8d4;strokeColor=#82b366;" vertex="1" parent="1">
          <mxGeometry x="510" y="510" width="120" height="40" as="geometry" />
        </mxCell>
        <mxCell id="UHS8fWVABQz516dVmGSH-5" value="&amp;lt;Feed Feature&amp;gt;" style="rounded=0;whiteSpace=wrap;html=1;fillColor=#e1d5e7;strokeColor=#9673a6;" vertex="1" parent="1">
          <mxGeometry x="520" y="360" width="100" height="40" as="geometry" />
        </mxCell>
        <mxCell id="UHS8fWVABQz516dVmGSH-6" style="edgeStyle=orthogonalEdgeStyle;rounded=0;orthogonalLoop=1;jettySize=auto;html=1;entryX=0;entryY=0.5;entryDx=0;entryDy=0;fontColor=#1726FF;endArrow=block;endFill=0;dashed=1;" edge="1" parent="1" source="UHS8fWVABQz516dVmGSH-7" target="UHS8fWVABQz516dVmGSH-5">
          <mxGeometry relative="1" as="geometry" />
        </mxCell>
        <mxCell id="UHS8fWVABQz516dVmGSH-7" value="API" style="rounded=0;whiteSpace=wrap;html=1;fillColor=#dae8fc;strokeColor=#6c8ebf;" vertex="1" parent="1">
          <mxGeometry x="430" y="260" width="120" height="40" as="geometry" />
        </mxCell>
        <mxCell id="UHS8fWVABQz516dVmGSH-8" style="edgeStyle=orthogonalEdgeStyle;rounded=0;orthogonalLoop=1;jettySize=auto;html=1;entryX=1;entryY=0.5;entryDx=0;entryDy=0;fontColor=#1726FF;endArrow=block;endFill=0;dashed=1;" edge="1" parent="1" source="UHS8fWVABQz516dVmGSH-9" target="UHS8fWVABQz516dVmGSH-5">
          <mxGeometry relative="1" as="geometry" />
        </mxCell>
        <mxCell id="UHS8fWVABQz516dVmGSH-9" value="Database" style="rounded=0;whiteSpace=wrap;html=1;fillColor=#f8cecc;strokeColor=#b85450;" vertex="1" parent="1">
          <mxGeometry x="590" y="260" width="120" height="40" as="geometry" />
        </mxCell>
        <mxCell id="UHS8fWVABQz516dVmGSH-10" style="edgeStyle=orthogonalEdgeStyle;rounded=0;orthogonalLoop=1;jettySize=auto;html=1;dashed=1;fontColor=#1726FF;endArrow=block;endFill=0;fillColor=#ffe6cc;strokeColor=#d79b00;" edge="1" parent="1" source="UHS8fWVABQz516dVmGSH-13" target="UHS8fWVABQz516dVmGSH-5">
          <mxGeometry relative="1" as="geometry" />
        </mxCell>
        <mxCell id="UHS8fWVABQz516dVmGSH-11" style="edgeStyle=orthogonalEdgeStyle;rounded=0;orthogonalLoop=1;jettySize=auto;html=1;fontColor=#1726FF;endArrow=classic;endFill=1;strokeColor=#d79b00;fillColor=#ffe6cc;" edge="1" parent="1" source="UHS8fWVABQz516dVmGSH-13" target="UHS8fWVABQz516dVmGSH-7">
          <mxGeometry relative="1" as="geometry">
            <Array as="points">
              <mxPoint x="530" y="215" />
              <mxPoint x="490" y="215" />
            </Array>
          </mxGeometry>
        </mxCell>
        <mxCell id="UHS8fWVABQz516dVmGSH-12" style="edgeStyle=orthogonalEdgeStyle;rounded=0;orthogonalLoop=1;jettySize=auto;html=1;fontColor=#1726FF;endArrow=classic;endFill=1;strokeColor=#d79b00;fillColor=#ffe6cc;" edge="1" parent="1" source="UHS8fWVABQz516dVmGSH-13" target="UHS8fWVABQz516dVmGSH-9">
          <mxGeometry relative="1" as="geometry">
            <Array as="points">
              <mxPoint x="610" y="215" />
              <mxPoint x="650" y="215" />
            </Array>
          </mxGeometry>
        </mxCell>
        <mxCell id="UHS8fWVABQz516dVmGSH-13" value="Main" style="rounded=0;whiteSpace=wrap;html=1;fillColor=#ffe6cc;strokeColor=#d79b00;" vertex="1" parent="1">
          <mxGeometry x="460" y="130" width="220" height="40" as="geometry" />
        </mxCell>
      </root>
    </mxGraphModel>
  </diagram>
</mxfile>
